HIERARCHY
ROOT root
{
	OFFSET	0	13.1	24.9
	CHANNELS 6  Xposition Yposition Zposition Xrotation Yrotation Zrotation
	JOINT spine_1
	{
		OFFSET	0	9.99999	0
		CHANNELS 3  Xrotation Yrotation Zrotation
		JOINT spine_2
		{
			OFFSET	0	112	-10
			CHANNELS 3  Xrotation Yrotation Zrotation
			JOINT spine_3
			{
				OFFSET	0	206.5	19.3
				CHANNELS 3  Xrotation Yrotation Zrotation
				JOINT spine_4
				{
					OFFSET	0	110.4	14.6
					CHANNELS 3  Xrotation Yrotation Zrotation
					JOINT neck_1
					{
						OFFSET	0	71.8	-50.3
						CHANNELS 3  Xrotation Yrotation Zrotation
						JOINT neck_2
						{
							OFFSET	0	86.2	-25.8
							CHANNELS 3  Xrotation Yrotation Zrotation
							JOINT head_ee
							{
								OFFSET	0	179.8	-8.7
								CHANNELS 3  Xrotation Yrotation Zrotation
								End Site
								{
									OFFSET	1	0	0
								}
							}
						}
					}
					JOINT left_clavicle
					{
						OFFSET	-43.2	22.4	-70.8
						CHANNELS 3  Xrotation Yrotation Zrotation
						JOINT left_shoulder
						{
							OFFSET	-93.9	-5.79999	48.7
							CHANNELS 3  Xrotation Yrotation Zrotation
							JOINT left_elbow
							{
								OFFSET	-291.4	-30.8	15.2
								CHANNELS 3  Xrotation Yrotation Zrotation
								JOINT left_lowarm_twist
								{
									OFFSET	-110.7	-3.89999	13.6
									CHANNELS 3  Xrotation Yrotation Zrotation
									JOINT left_hand
									{
										OFFSET	-110.7	-3.89999	13.6
										CHANNELS 3  Xrotation Yrotation Zrotation
										JOINT left_ee
										{
											OFFSET	-80.8	-5.10001	12.1
											CHANNELS 3  Xrotation Yrotation Zrotation
											End Site
											{
												OFFSET	1	0	0
											}
										}
									}
								}
							}
						}
					}
					JOINT right_clavicle
					{
						OFFSET	43.2	22.4	-70.8
						CHANNELS 3  Xrotation Yrotation Zrotation
						JOINT right_shoulder
						{
							OFFSET	93.9	-5.79999	48.7
							CHANNELS 3  Xrotation Yrotation Zrotation
							JOINT right_elbow
							{
								OFFSET	291.4	-30.8	15.2
								CHANNELS 3  Xrotation Yrotation Zrotation
								JOINT right_lowarm_twist
								{
									OFFSET	110.7	-3.89999	13.6
									CHANNELS 3  Xrotation Yrotation Zrotation
									JOINT right_hand
									{
										OFFSET	110.7	-3.89999	13.6
										CHANNELS 3  Xrotation Yrotation Zrotation
										JOINT right_ee
										{
											OFFSET	80.8	-5.10001	12.1
											CHANNELS 3  Xrotation Yrotation Zrotation
											End Site
											{
												OFFSET	1	0	0
											}
										}
									}
								}
							}
						}
					}
				}
			}
		}
	}
	JOINT left_hip
	{
		OFFSET	-82.8	-127.5	0.300001
		CHANNELS 3  Xrotation Yrotation Zrotation
		JOINT left_knee
		{
			OFFSET	-28.2	-396.7	2.2
			CHANNELS 3  Xrotation Yrotation Zrotation
			JOINT left_ankle
			{
				OFFSET	-11.7	-411.3	35.4
				CHANNELS 3  Xrotation Yrotation Zrotation
				JOINT left_toes
				{
					OFFSET	0	-60	-88.6
					CHANNELS 3  Xrotation Yrotation Zrotation
					JOINT left_foot_ee
					{
						OFFSET	-22.5	-16.5	-42.2
						CHANNELS 3  Xrotation Yrotation Zrotation
						End Site
						{
							OFFSET	1	0	0
						}
					}
				}
			}
		}
	}
	JOINT right_hip
	{
		OFFSET	82.8	-127.5	0.300001
		CHANNELS 3  Xrotation Yrotation Zrotation
		JOINT right_knee
		{
			OFFSET	28.2	-396.7	2.2
			CHANNELS 3  Xrotation Yrotation Zrotation
			JOINT right_ankle
			{
				OFFSET	11.7	-411.3	35.4
				CHANNELS 3  Xrotation Yrotation Zrotation
				JOINT right_toes
				{
					OFFSET	0	-60	-88.6
					CHANNELS 3  Xrotation Yrotation Zrotation
					JOINT right_foot_ee
					{
						OFFSET	22.5	-16.5	-42.2
						CHANNELS 3  Xrotation Yrotation Zrotation
						End Site
						{
							OFFSET	1	0	0
						}
					}
				}
			}
		}
	}
}
MOTION
Frames: 14
Frame Time: 0.02
2899.82750799 712.425 -1902.5887942 1.18431512087 12.0641225346 2.09984869246 1.89755 0.283758 0.392567 1.8976 0.258203 0.409828 1.89947 0.181295 0.449177 1.89928 0.249958 0.414908 -3.39212 15.2678 1.67243 -3.11799 26.588 3.992 -0.0 0.0 -0.0 1.4245 16.646 4.1739 -13.0562 -27.2887 51.4764 1.66543 -39.5196 0.598309 -1.57421 -0.0581193 0.192619 -3.08618 0.536414 -20.8241 -0.0 0.0 -0.0 9.13641 9.35433 -17.9673 -19.1984 15.5648 -65.541 0.609912 16.8114 -0.0901269 14.2127 -0.280116 1.7893 -0.375055 -29.0874 -9.32594 0.0 0.0 0.0 -0.299464 -2.25996 -4.64027 -8.63028 0.257969 1.29811 34.7681 23.6191 -4.59985 -22.3317 0.0 0.0 -0.0 0.0 -0.0 24.0799 24.0853 -7.53697 -61.2706 2.33873 -8.66392 3.31006 -8.25345 0.480325 23.0813 -0.0 -0.0 0.0 0.0 0.0 
2891.44894014 711.28 -1904.1001722 0.416802593911 10.6405997592 2.5310321767 1.81269 0.271428 0.375427 1.81274 0.246989 0.391938 1.81445 0.172798 0.429836 1.81427 0.238514 0.397152 -3.69503 16.2816 2.42606 -3.41474 27.9345 4.98371 -0.0 0.0 -0.0 1.94698 17.1572 5.02166 -11.1429 -24.6127 49.4822 2.00317 -44.7739 0.825183 -1.94907 -0.0727387 0.23825 -3.20386 -0.978158 -22.4427 -0.0 0.0 -0.0 9.56185 11.5552 -18.8448 -19.4771 15.1777 -65.5907 0.544978 15.108 -0.0722706 13.5044 -0.27673 1.69889 -0.524189 -29.2365 -8.57269 0.0 0.0 0.0 -1.03528 -0.505042 -5.0175 -3.13848 0.116438 0.467522 35.6651 26.038 -4.76323 -19.9025 0.0 0.0 -0.0 0.0 -0.0 26.5626 24.0573 -9.24902 -56.7139 1.85579 -8.15356 0.990674 -6.52961 0.144704 22.9608 -0.0 -0.0 0.0 0.0 0.0 
2887.13693611 711.28 -1898.75558885 0.418334552726 11.7048205914 2.52312633136 1.81269 0.271428 0.375427 1.81274 0.246989 0.391938 1.81445 0.172798 0.429836 1.81427 0.238514 0.397152 -3.69503 16.2816 2.42606 -3.41474 27.9345 4.98371 -0.0 0.0 -0.0 1.94698 17.1572 5.02166 -11.1429 -24.6127 49.4822 2.00317 -44.7739 0.825183 -1.94907 -0.0727387 0.23825 -3.20386 -0.978158 -22.4427 -0.0 0.0 -0.0 9.56185 11.5552 -18.8448 -19.4771 15.1777 -65.5907 0.544978 15.108 -0.0722706 13.5044 -0.27673 1.69889 -0.524189 -29.2365 -8.57269 0.0 0.0 0.0 -1.03528 -0.505042 -5.0175 -3.13848 0.116438 0.467522 35.6651 26.038 -4.76323 -19.9025 0.0 0.0 -0.0 0.0 -0.0 26.5626 24.0573 -9.24902 -56.7139 1.85579 -8.15356 0.990674 -6.52961 0.144704 22.9608 -0.0 -0.0 0.0 0.0 0.0 
2854.65725076 711.286 -1901.0472109 -0.694831390348 13.9490424141 3.0846252081 1.49763 0.150711 0.175552 1.49764 0.139235 0.184787 1.4981 0.102743 0.207307 1.49806 0.134194 0.188479 -3.03459 15.7551 2.64328 -2.73145 26.6638 4.99203 -0.0 0.0 -0.0 2.14063 17.3081 5.33034 -7.59992 -22.4232 49.4221 2.74208 -53.6302 1.38623 -0.85568 -0.0309343 0.104896 -3.56834 1.9209 -23.5774 -0.0 0.0 -0.0 9.47863 13.3221 -18.6073 -20.3398 14.5645 -65.0536 0.451477 12.6069 -0.0498711 12.6073 -0.270839 1.58447 -0.496712 -27.3336 -7.99621 0.0 0.0 0.0 -3.60158 1.49004 -3.82257 4.50636 -0.211627 -0.658836 33.8613 25.994 -4.56798 -17.5966 0.0 0.0 -0.0 0.0 -0.0 31.998 21.536 -8.97278 -49.9354 1.21655 -7.32829 -5.57375 -8.30149 -0.82522 20.6292 -0.0 -0.0 0.0 0.0 0.0 
2803.89941292 710.223 -1916.77133888 -1.27674240713 16.8586246842 3.85902404566 1.17933 0.00772308 0.117038 1.17934 0.000259977 0.117293 1.17934 -0.0220315 0.115205 1.17932 -0.00356051 0.117239 -0.704534 15.9651 2.04468 -0.218989 27.0231 3.91388 -0.0 0.0 -0.0 2.84361 18.8783 6.47633 -2.75597 -22.1035 48.91 3.53627 -60.265 2.05302 0.101975 0.00358186 -0.0125309 -3.24981 3.46808 -20.4668 -0.0 0.0 -0.0 9.78263 15.1925 -19.202 -23.8009 14.65 -64.5557 0.373069 10.4708 -0.0341844 13.1705 -0.274747 1.65629 0.0167428 -26.301 -10.4889 0.0 0.0 0.0 -6.43881 2.04643 -1.77865 5.38004 -0.258634 -0.784577 35.8069 20.3452 -4.62998 -15.1 0.0 0.0 -0.0 0.0 -0.0 37.3934 19.416 -9.49143 -40.0342 0.468945 -6.00307 -8.09916 -6.91267 -1.20471 19.2326 -0.0 -0.0 0.0 0.0 0.0 
2778.43955721 711.216 -1931.90402766 -0.411248232421 16.2641600417 2.71247252979 1.0092 0.163207 0.186343 1.0092 0.151018 0.196351 1.00973 0.110303 0.221795 1.00969 0.143948 0.201592 -0.0166125 16.1514 1.4739 0.552971 27.6704 3.17589 -0.0 0.0 -0.0 2.76826 19.362 6.3804 -2.80784 -23.1225 50.1757 3.8205 -62.1318 2.30212 -0.26647 -0.00946492 0.0327147 -2.81979 3.06332 -17.6588 -0.0 0.0 -0.0 9.76801 16.4668 -19.1069 -25.5665 15.1517 -64.9495 0.320808 9.03007 -0.025333 12.6569 -0.271212 1.59079 0.433505 -26.4894 -12.9232 0.0 0.0 0.0 -10.0596 3.08368 2.11133 6.37981 -0.314776 -0.927584 33.704 17.8875 -4.3683 -15.4497 0.0 0.0 -0.0 0.0 -0.0 36.7016 15.7483 -7.88694 -34.0201 0.130786 -5.14341 -5.54145 -2.40534 -0.825198 18.0943 -0.0 -0.0 0.0 0.0 0.0 
2760.99933217 709.365 -1942.97899583 -0.238394114851 16.0088089262 1.57411225015 1.04904 0.217992 0.382865 1.0491 0.193188 0.39596 1.05047 0.113479 0.425709 1.05026 0.179287 0.402445 0.352239 16.2816 0.663296 1.00204 28.4835 2.22461 -0.0 0.0 -0.0 2.84178 19.4666 6.49389 -3.12899 -22.6159 49.9958 3.9649 -62.9996 2.43028 -0.103794 -0.00366869 0.012748 -2.49379 3.32149 -15.2764 -0.0 0.0 -0.0 9.71101 16.2762 -18.9903 -26.5352 15.0709 -64.6216 0.372316 10.4501 -0.0340477 13.9904 -0.279174 1.76092 0.932695 -25.5095 -15.5001 0.0 0.0 0.0 -11.5961 4.32167 4.6049 5.60628 -0.271119 -0.817022 33.8258 16.7848 -4.36373 -15.5842 0.0 0.0 -0.0 0.0 -0.0 35.966 15.0119 -6.78722 -29.1537 -0.0755486 -4.42538 -5.28464 -2.88416 -0.785894 17.0771 -0.0 -0.0 0.0 0.0 0.0 
2731.35222322 703.886 -1962.19661454 -0.628499005004 17.4464969383 1.34547101733 0.728707 0.21701 0.675653 0.728945 0.173578 0.688091 0.731142 0.0341339 0.708825 0.730471 0.145648 0.694539 0.341739 16.5495 0.332252 1.03549 29.2353 1.88274 -0.0 0.0 -0.0 2.47205 20.0659 5.96858 -2.61625 -22.2627 49.9807 5.24943 -68.9392 3.60506 -0.455331 -0.0162655 0.0558747 -1.91695 3.09445 -11.4596 -0.0 0.0 -0.0 9.86345 17.008 -19.2899 -27.1898 14.7676 -65.2598 0.451935 12.6192 -0.0499711 14.8588 -0.282229 1.8718 1.62748 -26.3593 -19.8568 0.0 0.0 0.0 -13.4076 3.73429 6.13545 5.65586 -0.273872 -0.824126 35.6159 12.4259 -4.49037 -15.1371 0.0 0.0 -0.0 0.0 -0.0 31.1005 12.7961 -7.7837 -9.48801 -0.272858 -1.42889 -6.87002 3.41285 -1.04236 14.0273 -0.0 -0.0 0.0 0.0 0.0 
2734.72761955 703.886 -1967.26902996 -0.62629127983 16.7919463732 1.33797107861 0.728707 0.21701 0.675653 0.728945 0.173578 0.688091 0.731142 0.0341339 0.708825 0.730471 0.145648 0.694539 0.341739 16.5495 0.332252 1.03549 29.2353 1.88274 -0.0 0.0 -0.0 2.47205 20.0659 5.96858 -2.61625 -22.2627 49.9807 5.24943 -68.9392 3.60506 -0.455331 -0.0162655 0.0558747 -1.91695 3.09445 -11.4596 -0.0 0.0 -0.0 9.86345 17.008 -19.2899 -27.1898 14.7676 -65.2598 0.451935 12.6192 -0.0499711 14.8588 -0.282229 1.8718 1.62748 -26.3593 -19.8568 0.0 0.0 0.0 -13.4076 3.73429 6.13545 5.65586 -0.273872 -0.824126 35.6159 12.4259 -4.49037 -15.1371 0.0 0.0 -0.0 0.0 -0.0 31.1005 12.7961 -7.7837 -9.48801 -0.272858 -1.42889 -6.87002 3.41285 -1.04236 14.0273 -0.0 -0.0 0.0 0.0 0.0 
2739.96919774 703.886 -1974.90519652 -0.623119778568 15.7969238996 1.32666786628 0.728707 0.21701 0.675653 0.728945 0.173578 0.688091 0.731142 0.0341339 0.708825 0.730471 0.145648 0.694539 0.341739 16.5495 0.332252 1.03549 29.2353 1.88274 -0.0 0.0 -0.0 2.47205 20.0659 5.96858 -2.61625 -22.2627 49.9807 5.24943 -68.9392 3.60506 -0.455331 -0.0162655 0.0558747 -1.91695 3.09445 -11.4596 -0.0 0.0 -0.0 9.86345 17.008 -19.2899 -27.1898 14.7676 -65.2598 0.451935 12.6192 -0.0499711 14.8588 -0.282229 1.8718 1.62748 -26.3593 -19.8568 0.0 0.0 0.0 -13.4076 3.73429 6.13545 5.65586 -0.273872 -0.824126 35.6159 12.4259 -4.49037 -15.1371 0.0 0.0 -0.0 0.0 -0.0 31.1005 12.7961 -7.7837 -9.48801 -0.272858 -1.42889 -6.87002 3.41285 -1.04236 14.0273 -0.0 -0.0 0.0 0.0 0.0 
2725.80694866 698.234 -1987.07584487 -0.373474786229 16.8905247824 1.1250170148 0.565799 0.20173 0.830994 0.566171 0.148445 0.842146 0.568521 -0.0233857 0.854808 0.567519 0.111904 0.847775 0.284057 16.5227 0.272131 0.974425 29.2482 1.8279 -0.0 0.0 -0.0 2.61155 20.2998 6.18332 -2.03456 -22.0456 50.3967 5.85554 -70.9481 4.17451 -0.468861 -0.0167558 0.057533 -1.80727 3.14078 -10.698 -0.0 0.0 -0.0 9.76827 16.8783 -19.0852 -27.4951 14.5715 -66.0446 0.496428 13.816 -0.060145 15.4215 -0.283311 1.94366 1.85798 -26.1926 -21.2039 0.0 0.0 0.0 -14.3185 4.44654 6.58318 4.45612 -0.208983 -0.651585 36.6484 11.7854 -4.58413 -15.1184 0.0 0.0 -0.0 0.0 -0.0 28.5361 11.793 -8.63951 1.89538 0.0826781 0.279079 -8.58438 5.73093 -1.31867 12.2497 -0.0 -0.0 0.0 0.0 0.0 
2709.46370261 692.637 -2005.24950763 -0.107504825868 18.6429007342 0.445577424403 0.521051 0.171092 0.880882 0.521475 0.114695 0.889983 0.523436 -0.0667487 0.894857 0.522327 0.0754091 0.894169 1.02558 16.7287 1.21374 1.73389 28.6866 2.71734 -0.0 0.0 -0.0 2.2884 20.8251 5.73407 -2.37694 -22.1393 51.1768 6.27771 -72.141 4.57498 -0.503951 -0.0180289 0.0618334 -1.58609 4.96961 -8.36672 -0.0 0.0 -0.0 10.0353 15.1927 -19.763 -27.1 14.5131 -66.0043 0.395886 11.0957 -0.0384533 15.3634 -0.283232 1.93623 1.44551 -27.5433 -19.0897 0.0 0.0 0.0 -15.7288 5.20472 7.49676 1.96102 -0.0857072 -0.288695 38.9554 12.0291 -4.80107 -14.2137 0.0 0.0 -0.0 0.0 -0.0 26.8659 10.8112 -8.5503 8.35557 0.433045 1.20727 -12.1172 6.90327 -1.88067 10.0347 -0.0 -0.0 0.0 0.0 0.0 
2698.90060198 686.696 -2019.44450851 -0.196383839606 17.6690242483 0.0769478198103 0.526399 0.224156 0.896992 0.526831 0.166626 0.909436 0.52968 -0.0196878 0.924364 0.52851 0.126539 0.915874 0.654334 17.3042 1.64649 1.36642 29.4483 3.30706 -0.0 0.0 -0.0 2.12366 21.0341 5.50577 -2.20029 -21.8477 52.0248 6.10942 -71.6833 4.41501 0.277817 0.009706 -0.0341534 -1.73537 7.04326 -8.38561 -0.0 0.0 -0.0 9.77516 16.3803 -19.1274 -26.9328 14.539 -66.4602 0.465972 12.9981 -0.053083 15.6752 -0.283569 1.97606 1.54423 -27.9455 -19.7742 0.0 0.0 0.0 -15.6644 6.2983 8.4384 -0.402159 0.0163505 0.0595496 40.6231 12.4619 -4.95418 -13.6047 0.0 0.0 -0.0 0.0 -0.0 27.0196 10.4784 -8.92932 8.36253 0.433479 1.20825 -8.68336 9.30977 -1.35852 9.90936 -0.0 -0.0 0.0 0.0 0.0 
2690.24723307 682.396 -2035.26273106 -0.479387541832 17.6917251921 0.206877377253 0.469979 0.155072 0.899765 0.470424 0.0975057 0.907808 0.472155 -0.0879893 0.90878 0.471007 0.0566337 0.911271 1.48474 17.8291 2.1751 2.28067 29.7473 3.74652 -0.0 0.0 -0.0 2.05827 21.1736 5.4187 -2.71833 -21.8025 51.9562 6.08357 -71.611 4.39048 -0.109448 -0.00386913 0.0134422 -1.47523 5.93601 -7.1872 -0.0 0.0 -0.0 10.137 17.0602 -19.8974 -26.2528 15.4027 -66.9855 0.480508 13.3891 -0.0564007 16.34 -0.283562 2.06097 1.59144 -29.6132 -20.4649 0.0 0.0 0.0 -15.8208 5.53837 8.3893 -1.94733 0.0752677 0.289356 41.4294 12.08 -5.01956 -12.665 0.0 0.0 -0.0 0.0 -0.0 27.5259 10.9745 -9.21595 6.55851 0.325074 0.953043 -6.07574 9.70779 -0.948425 10.2555 -0.0 -0.0 0.0 0.0 0.0 
